<svg width="112" height="35" viewBox="0 0 112 35" fill="none" xmlns="http://www.w3.org/2000/svg">
<path d="M51 0H31V35H51V0Z" fill="#EC0D0D"/>
<path d="M42.3436 21.2939C43.1351 21.2836 43.9223 21.412 44.6687 21.673C45.3237 21.9019 45.9293 22.2512 46.4537 22.7027C46.942 23.1282 47.3321 23.6529 47.5977 24.2412C47.863 24.842 48 25.4908 48 26.1466C48 26.8025 47.863 27.4513 47.5977 28.0521C47.3323 28.6405 46.9421 29.1654 46.4537 29.5911C45.9293 30.0425 45.3237 30.3918 44.6687 30.6207C43.9223 30.8818 43.1351 31.01 42.3436 30.9994H33V16H46.3537V19.5293H37.4512V21.2939H42.3436ZM42.0081 27.4701C42.4105 27.4847 42.8034 27.3471 43.1072 27.0852C43.2435 26.9689 43.3529 26.8249 43.4279 26.6629C43.5028 26.501 43.5416 26.3248 43.5416 26.1466C43.5416 25.9684 43.5028 25.7923 43.4279 25.6304C43.3529 25.4684 43.2435 25.3244 43.1072 25.2081C42.8033 24.9464 42.4105 24.8088 42.0081 24.8232H37.4512V27.4701H42.0081Z" fill="white"/>
<path d="M73 0H53V35H73V0Z" fill="#EC0D0D"/>
<path d="M60.4118 16V24.2145L67.6597 16H71V31H66.5882V23.0588L59.3395 31H56V16H60.4118Z" fill="white"/>
<path d="M28 0H0V35H28V0Z" fill="#EC0D0D"/>
<path d="M15.7739 16V22.3102L19.2825 16H24.4804L19.9321 23.3811L25 31H19.8021L15.7739 24.5713V31H11.2261V24.5713L7.19788 31H2L7.06787 23.3811L2.52005 16H7.7175L11.2261 22.3102V16H15.7739Z" fill="white"/>
<path d="M89.2159 20.0008C89.9235 19.9921 90.625 20.134 91.2751 20.4174C91.8797 20.6836 92.42 21.0799 92.8585 21.5789C93.3005 22.0886 93.6234 22.6927 93.8032 23.3464C94.0022 24.0825 94.051 24.8521 93.9464 25.608C93.857 26.4008 93.6222 27.1697 93.2543 27.8751C92.9061 28.5459 92.4408 29.1472 91.8809 29.6498C91.331 30.1419 90.7002 30.5326 90.0173 30.804C89.3295 31.0782 88.5966 31.2177 87.8575 31.2153C87.3961 31.2255 86.9359 31.1653 86.4921 31.0367C86.168 30.9385 85.8593 30.7943 85.575 30.6084C85.3114 30.4399 85.0719 30.2354 84.8634 30.0006L84.2576 35H82L83.8022 20.1198H85.4345L85.8036 21.2272C86.0626 20.9896 86.3469 20.7822 86.6514 20.6086C86.9961 20.4428 87.3533 20.3053 87.7197 20.1974C88.2062 20.0581 88.7103 19.9918 89.2159 20.0008ZM87.9856 29.1439C88.4215 29.1436 88.8531 29.0566 89.2559 28.8878C89.6729 28.7141 90.0558 28.4661 90.3865 28.1555C90.7309 27.8337 91.0193 27.4554 91.2395 27.0364C91.473 26.5925 91.6214 26.1079 91.6772 25.608C91.7434 25.1306 91.7125 24.6445 91.5865 24.1796C91.4714 23.7692 91.2729 23.3876 91.0038 23.0596C90.7443 22.7464 90.4183 22.4967 90.0502 22.3292C89.6702 22.1564 89.2578 22.069 88.8414 22.0731C88.4038 22.0737 87.9706 22.1607 87.5658 22.3292C87.1472 22.4994 86.7635 22.7471 86.4343 23.0596C86.0921 23.3844 85.8056 23.7648 85.5866 24.185C85.3548 24.6276 85.2067 25.1102 85.1498 25.608C85.0835 26.0854 85.1144 26.5715 85.2405 27.0364C85.3545 27.4457 85.5508 27.8268 85.817 28.1555C86.0748 28.4709 86.4012 28.7216 86.7705 28.8878C87.1529 29.06 87.5672 29.1474 87.9856 29.1439Z" fill="white"/>
<path d="M103.566 16H105.799L105.2 20.9325C105.417 20.8071 105.655 20.6858 105.912 20.5687C106.14 20.4895 106.4 20.4092 106.694 20.3277C107.007 20.2428 107.331 20.2012 107.656 20.204C108.281 20.201 108.9 20.3392 109.467 20.6085C110.033 20.8778 110.533 21.2714 110.93 21.7607C111.34 22.274 111.64 22.8677 111.811 23.5043C112.003 24.2312 112.05 24.9899 111.946 25.7353C111.858 26.5165 111.628 27.2746 111.268 27.9716C110.933 28.6248 110.492 29.2165 109.963 29.7223C109.459 30.2025 108.874 30.5881 108.236 30.8609C107.628 31.1253 106.974 31.2633 106.312 31.2665C105.997 31.2705 105.683 31.2346 105.378 31.1598C105.13 31.0993 104.889 31.0171 104.655 30.9143C104.429 30.8275 104.219 30.7046 104.031 30.5504L103.491 35H101.258L101.799 30.5504C101.573 30.6939 101.335 30.8157 101.088 30.9143C100.83 31.017 100.564 31.0991 100.293 31.1598C99.9827 31.2322 99.665 31.268 99.3464 31.2665C98.7156 31.2703 98.0919 31.1317 97.5208 30.8609C96.9584 30.5964 96.4622 30.2072 96.0691 29.7223C95.6588 29.2091 95.3591 28.615 95.1893 27.9779C94.9959 27.2471 94.9501 26.4844 95.0546 25.7353C95.1427 24.9558 95.3724 24.1995 95.7321 23.5043C96.0679 22.8539 96.5086 22.2646 97.0361 21.7608C97.541 21.2788 98.1263 20.8909 98.7649 20.615C99.3724 20.3475 100.027 20.2077 100.69 20.2041C101 20.2014 101.31 20.2431 101.609 20.3277C101.89 20.4096 102.135 20.4899 102.344 20.5688C102.564 20.6676 102.773 20.7895 102.967 20.9326L103.566 16ZM102.691 23.2107C102.529 23.0322 102.349 22.871 102.155 22.7295C101.962 22.5925 101.753 22.4799 101.534 22.3941C101.266 22.2922 100.983 22.2427 100.697 22.2482C100.293 22.2496 99.8928 22.3312 99.5198 22.4884C99.1303 22.6501 98.776 22.8877 98.4772 23.1876C98.1589 23.5063 97.8963 23.8772 97.7003 24.2844C97.4823 24.7408 97.3427 25.2315 97.2876 25.7353C97.2184 26.2241 97.2384 26.7215 97.3466 27.203C97.436 27.6004 97.6101 27.9732 97.8569 28.2954C98.0901 28.5916 98.3899 28.827 98.7314 28.9821C99.0827 29.143 99.4641 29.2253 99.8497 29.2232C100.146 29.2262 100.441 29.1784 100.722 29.0818C100.969 28.9975 101.205 28.8835 101.425 28.742C101.657 28.6028 101.876 28.4414 102.077 28.2599L102.691 23.2107ZM104.31 28.2599C104.473 28.4379 104.652 28.5994 104.846 28.742C105.039 28.8787 105.248 28.991 105.467 29.0765C105.735 29.1789 106.019 29.2287 106.305 29.2232C106.709 29.2214 107.108 29.1395 107.48 28.9822C107.868 28.8221 108.222 28.5891 108.523 28.2954C108.843 27.9801 109.105 27.6103 109.298 27.2031C109.517 26.7409 109.658 26.2447 109.713 25.7353C109.783 25.2506 109.763 24.7571 109.654 24.28C109.56 23.884 109.387 23.512 109.143 23.1876C108.914 22.8849 108.613 22.6447 108.269 22.4884C107.918 22.3278 107.537 22.2459 107.151 22.2482C106.854 22.2449 106.559 22.2943 106.279 22.3941C106.034 22.4818 105.799 22.5941 105.576 22.7295C105.344 22.8675 105.125 23.0288 104.924 23.2107L104.31 28.2599Z" fill="white"/>
<path d="M79 28H76V31H79V28Z" fill="white"/>
</svg>
